<?xml version="1.0" standalone="no"?>
<!DOCTYPE svg PUBLIC "-//W3C//DTD SVG 20010904//EN"
 "http://www.w3.org/TR/2001/REC-SVG-20010904/DTD/svg10.dtd">
<svg version="1.0" xmlns="http://www.w3.org/2000/svg"
 width="1800.000000pt" height="789.000000pt" viewBox="0 0 1800.000000 789.000000"
 preserveAspectRatio="xMidYMid meet">
<g transform="translate(0.000000,789.000000) scale(0.100000,-0.100000)"
fill="#4a3f35" stroke="none">
<path d="M7934 7709 l-19 -21 -3 -104 -4 -103 16 -108 c47 -314 263 -683 486
-831 14 -9 59 -42 100 -73 41 -31 100 -71 130 -89 30 -18 67 -44 82 -58 30
-28 56 -43 111 -68 76 -34 293 -147 335 -175 24 -16 45 -29 47 -29 14 0 187
-127 193 -142 2 -5 13 -8 24 -8 l20 0 -7 27 c-3 15 -10 30 -14 33 -4 3 -26 31
-49 62 -87 118 -269 274 -405 347 -27 14 -74 40 -105 56 -247 132 -454 275
-399 275 7 0 38 -11 68 -26 55 -25 93 -43 139 -63 54 -23 208 -78 265 -95 303
-85 390 -126 592 -278 51 -38 97 -67 102 -63 l10 6 -28 47 c-33 58 -43 82 -32
82 14 0 63 -24 106 -51 55 -35 201 -109 214 -109 34 0 -56 149 -128 212 -37
32 -168 98 -195 98 l-16 0 -37 58 c-20 31 -75 95 -122 142 -82 81 -102 100
-178 161 -44 36 -31 43 20 11 23 -15 51 -32 62 -39 276 -164 338 -216 470
-393 22 -30 73 -87 112 -126 l73 -72 62 -31 61 -31 42 0 41 0 45 -28 44 -28
36 -55 c19 -30 57 -86 83 -126 64 -96 143 -153 283 -201 138 -47 211 -51 261
-12 l26 21 19 -23 c21 -27 72 -125 94 -183 l15 -40 5 -112 c3 -61 3 -123 -1
-137 l-6 -26 -16 0 c-9 0 -34 16 -57 35 -22 19 -65 44 -94 55 l-54 20 -75 0
-75 0 -32 14 c-18 8 -61 40 -97 70 l-65 56 -40 11 -40 11 -95 -5 c-52 -3 -108
-11 -125 -17 -16 -7 -64 -13 -105 -14 l-75 -1 -45 14 c-53 18 -76 31 -151 87
-30 23 -84 58 -120 77 l-64 35 -51 7 -51 7 -41 -12 c-70 -18 -120 -72 -143
-154 l-9 -31 12 -53 11 -53 41 -40 c42 -42 89 -72 99 -62 6 5 -20 52 -34 63
-4 3 -16 21 -28 40 l-21 35 0 50 c0 55 4 64 40 88 49 34 113 16 186 -50 57
-53 75 -81 177 -274 24 -47 69 -121 99 -165 31 -43 65 -104 78 -134 101 -249
232 -374 433 -415 15 -3 27 -10 27 -15 0 -13 -68 -88 -92 -101 l-18 -10 -20
11 -20 11 -65 -16 c-37 -8 -79 -15 -94 -15 l-28 0 -6 73 -5 72 -38 70 c-115
219 -279 359 -504 431 l-105 34 -90 0 c-49 0 -97 5 -105 10 l-15 10 59 53 59
53 -7 35 -6 35 -29 22 c-17 12 -49 28 -73 37 l-43 15 -112 0 c-62 0 -113 4
-113 8 0 10 55 52 68 52 4 0 34 23 65 51 l57 51 0 19 0 19 -37 19 c-38 19
-211 77 -248 83 -11 2 -20 10 -20 17 l0 15 80 13 c44 7 110 22 148 33 l67 21
45 43 45 43 0 19 c0 26 -36 83 -58 91 -9 3 -24 12 -32 18 -31 25 -115 46 -384
95 l-109 19 -19 17 -18 18 12 8 c7 4 30 8 50 8 32 0 62 7 147 36 l14 5 -9 9
-10 10 -110 -16 -109 -15 -65 6 c-94 10 -274 55 -293 74 -13 13 -57 15 -57 3
0 -32 134 -131 315 -232 66 -37 290 -90 384 -90 65 -1 129 -14 145 -30 l11
-11 -19 -15 c-35 -25 -129 -55 -235 -75 l-105 -19 -138 0 -138 0 0 -13 c0 -17
48 -40 165 -78 55 -17 163 -53 240 -78 l140 -47 3 -20 3 -20 -57 -46 c-31 -25
-84 -59 -118 -76 -148 -72 -218 -103 -223 -99 -17 18 66 116 140 165 20 13 37
28 37 32 0 4 10 12 23 18 l22 11 -22 0 c-12 1 -25 -3 -28 -9 -3 -5 -15 -10
-25 -10 -44 0 -186 -103 -275 -199 -88 -95 -157 -216 -193 -341 l-16 -55 -1
-175 0 -175 14 -40 c13 -40 23 -63 77 -184 45 -99 124 -206 242 -325 151 -153
234 -216 652 -492 281 -186 560 -433 698 -618 128 -169 171 -234 202 -301 121
-260 180 -511 180 -763 0 -137 -23 -360 -40 -391 -5 -11 -10 -28 -10 -39 0
-71 -122 -366 -201 -484 -21 -33 -39 -64 -39 -69 0 -5 -4 -9 -10 -9 -5 0 -10
-8 -10 -17 l0 -18 40 43 c22 24 40 48 40 53 0 17 34 5 38 -12 2 -9 -3 -23 -10
-30 -8 -8 -24 -34 -37 -59 -36 -71 -186 -201 -331 -287 -121 -72 -263 -143
-285 -143 -7 0 -16 -4 -19 -9 -25 -40 -475 -141 -631 -141 -44 0 -86 -4 -94
-9 l-13 -9 11 -6 c6 -4 69 -10 139 -13 l127 -5 95 11 c199 23 384 69 530 132
25 11 54 24 65 29 258 110 546 336 719 563 109 143 206 299 206 331 0 6 6 23
14 37 28 54 74 207 87 287 l13 83 -11 65 c-15 84 -42 126 -122 184 -99 72
-221 245 -221 314 0 8 -22 81 -49 161 -50 150 -50 166 -4 142 35 -19 96 -40
198 -68 44 -12 89 -28 100 -35 67 -48 126 -225 156 -471 l12 -102 -11 -83
c-14 -98 -16 -218 -3 -218 44 0 95 379 80 600 l-7 105 -22 67 -22 67 -49 54
-49 55 -68 25 c-37 14 -92 30 -122 37 -30 6 -90 26 -134 43 l-78 32 -78 73
c-43 40 -94 96 -114 125 -19 29 -60 81 -90 117 -31 36 -56 67 -56 70 0 3 91 5
203 5 l202 -1 45 -20 45 -21 52 -55 c28 -30 67 -80 86 -109 40 -63 62 -84 77
-74 14 9 13 25 -5 59 -8 15 -15 33 -15 40 -1 61 -150 294 -276 430 -263 285
-339 356 -484 450 -41 27 -94 62 -118 78 -23 15 -46 28 -51 28 -4 0 -28 15
-52 33 -24 19 -49 36 -54 38 -6 2 -54 31 -108 64 -54 33 -136 83 -184 111
-309 183 -520 389 -583 572 l-22 63 4 97 3 97 29 58 28 59 57 57 c66 68 167
127 232 136 l47 7 21 -11 c30 -16 27 -23 -25 -56 -85 -54 -202 -197 -220 -271
l-6 -22 11 -6 c6 -4 34 11 63 32 72 54 121 76 198 91 l65 12 87 -15 c232 -41
446 -149 578 -294 136 -147 133 -267 -6 -289 -64 -10 -64 -37 0 -71 l31 -16
140 -5 140 -6 -22 -13 -22 -12 6 -16 6 -16 45 6 c25 3 50 10 56 15 6 5 22 12
35 16 14 4 62 29 107 56 l82 49 31 39 c17 21 44 66 61 98 l29 60 12 91 c17
135 -1 157 -65 79 -20 -24 -54 -52 -76 -62 l-39 -18 -25 16 c-30 20 -34 42
-22 135 l9 73 -10 10 -11 11 -55 -58 -55 -57 -26 7 -26 6 -24 38 c-13 21 -34
63 -47 92 -13 30 -40 82 -61 115 -48 75 -108 197 -108 219 0 15 11 20 37 17
21 -3 25 20 7 40 l-18 20 14 9 c8 5 22 7 30 5 14 -5 167 19 300 46 l56 12 39
-21 c22 -11 73 -50 114 -87 41 -37 87 -72 102 -77 l29 -10 0 -22 c0 -12 -11
-51 -25 -86 l-25 -64 9 -9 10 -10 31 13 c17 7 67 46 112 86 87 79 108 87 132
52 21 -30 20 -51 -5 -100 l-21 -40 11 -11 11 -11 52 19 c108 38 177 106 215
210 l18 50 0 110 0 110 -23 60 c-44 112 -89 170 -245 310 l-107 97 -15 -6 -14
-5 6 -66 6 -65 -25 0 c-99 0 -230 96 -325 240 -75 112 -119 159 -233 245 -52
40 -108 87 -124 104 -56 58 -75 42 -52 -44 l14 -50 -8 -9 -8 -8 -25 18 c-13
11 -59 62 -100 114 -145 182 -210 237 -464 396 -34 21 -97 61 -140 88 l-78 49
-106 106 c-142 142 -215 257 -254 396 -10 33 -20 71 -24 84 -4 14 -15 29 -24
35 l-16 11 -13 -13 -13 -13 1 -92 c3 -294 150 -547 470 -813 153 -126 156
-153 11 -86 -100 47 -144 64 -222 88 -63 18 -161 51 -255 84 -54 19 -138 61
-265 130 -196 106 -360 282 -459 492 -67 141 -76 171 -102 330 -4 21 -12 42
-19 48 l-12 10 -19 -21z m794 -2502 l112 5 0 -14 c0 -8 -18 -25 -40 -37 -52
-29 -120 -94 -155 -148 l-28 -43 -18 0 -18 0 -15 54 c-20 68 -20 105 0 156
l16 40 17 -9 16 -9 113 5z m-229 -144 l12 -66 34 -63 33 -63 -10 -43 c-5 -24
-10 -78 -9 -120 l0 -78 -15 0 c-39 0 -110 65 -139 128 -37 77 -28 198 25 309
l29 63 14 0 14 0 12 -67z m-131 -376 c26 -46 101 -105 159 -127 l48 -18 12
-23 c6 -13 26 -55 45 -92 18 -38 39 -73 45 -79 66 -54 -74 -56 -183 -3 l-53
26 -34 47 c-19 26 -44 78 -56 116 l-21 68 0 59 c0 67 9 74 38 26z m149 -424
l32 -13 101 0 100 0 58 -52 c33 -29 85 -73 117 -97 l58 -44 -19 -14 c-33 -24
-97 -36 -189 -37 l-90 0 -37 23 c-44 27 -163 160 -196 220 l-24 42 29 -7 c15
-4 42 -13 60 -21z m708 -358 c88 -52 166 -99 174 -104 l14 -8 -7 -12 c-4 -6
-17 -11 -30 -11 -12 0 -42 -6 -67 -14 -130 -40 -220 -46 -303 -21 l-48 15 -87
64 c-87 65 -128 102 -120 110 2 2 40 11 84 19 44 8 105 24 135 35 81 30 83 30
255 -73z m349 -210 c44 -25 81 -45 83 -45 2 0 32 -20 67 -45 36 -25 68 -45 71
-45 3 0 22 -11 42 -24 l35 -24 -23 -15 c-13 -8 -44 -18 -69 -22 -25 -4 -65
-14 -90 -22 l-45 -16 -95 0 -95 -1 -50 28 c-103 58 -142 82 -214 128 l-73 48
13 4 c8 2 25 6 39 9 42 7 178 46 233 66 74 27 84 26 171 -24z m434 -287 c120
-81 382 -322 382 -352 l0 -11 -203 1 c-217 2 -222 3 -312 52 -70 38 -319 222
-319 237 -1 5 19 13 44 16 46 7 182 50 235 75 17 7 52 14 78 14 l48 0 47 -32z
m468 -1575 c36 -32 74 -72 84 -89 l20 -31 0 -45 c0 -92 -54 -305 -110 -431
-22 -49 -40 -54 -40 -12 0 13 -12 71 -27 127 l-26 103 11 105 c7 58 12 156 12
218 0 62 3 112 6 112 3 0 35 -26 70 -57z m-109 -560 c5 -16 8 -66 7 -113 l0
-85 -33 -55 c-33 -54 -156 -200 -170 -200 -4 0 -12 14 -18 30 l-11 30 17 10
c10 5 28 37 41 72 13 35 42 105 66 155 24 51 44 98 44 103 0 21 29 80 39 80 6
0 14 -12 18 -27z"/>
<path d="M7974 6360 c-45 -9 -97 -22 -115 -30 -19 -7 -47 -18 -64 -24 -118
-44 -248 -129 -298 -195 -65 -85 -39 -92 77 -22 83 50 180 86 263 96 l48 7 75
-16 74 -16 36 -28 c82 -67 36 -107 -179 -157 -317 -73 -535 -195 -719 -404
-101 -114 -179 -241 -197 -320 l-6 -28 14 -12 15 -12 53 73 c29 40 89 109 134
153 l82 80 59 31 c32 18 76 37 97 44 l38 12 64 -12 64 -12 40 -30 c23 -16 39
-34 35 -39 -6 -10 -113 -98 -199 -165 -342 -261 -494 -562 -495 -976 0 -104 5
-128 26 -128 21 0 33 32 45 116 33 241 176 464 297 464 l29 0 16 -18 17 -19 0
-46 0 -46 -44 -123 c-44 -124 -60 -181 -92 -318 l-18 -75 0 -175 0 -175 21
-77 c43 -154 104 -268 203 -381 l42 -47 18 0 c32 0 33 19 2 69 -17 26 -45 90
-62 142 l-33 94 -4 97 c-6 115 -2 136 33 171 l27 27 29 0 29 0 23 -23 c24 -24
66 -123 66 -155 0 -71 117 -355 190 -461 67 -97 256 -291 285 -291 3 0 21 -11
39 -25 18 -14 45 -25 59 -25 l27 0 0 13 c0 7 -19 31 -41 52 -23 22 -70 78
-106 125 l-64 84 -45 96 c-64 138 -81 166 -165 292 -84 124 -195 332 -223 418
-23 68 -30 83 -42 87 l-10 3 1 -57 0 -58 -41 -3 -41 -3 -23 -25 c-13 -13 -30
-24 -38 -24 l-15 0 7 86 c8 97 34 223 71 339 l25 80 0 100 c0 103 31 360 50
429 l12 38 -9 9 -9 9 -21 -48 c-12 -26 -31 -69 -43 -97 l-21 -49 -22 26 c-12
14 -31 31 -43 37 l-21 10 -39 -10 c-21 -6 -51 -18 -66 -27 -68 -40 -36 32 65
146 37 42 125 127 194 187 l126 110 57 95 c61 100 146 213 218 292 24 25 39
49 34 52 -14 9 -88 -47 -182 -137 -49 -48 -93 -87 -97 -87 -4 0 -2 5 5 12 51
51 -26 118 -135 118 l-45 0 4 13 c5 17 175 101 261 127 281 87 345 109 387
132 50 27 135 85 149 101 l13 17 -16 6 c-9 4 -35 4 -58 0 l-40 -7 -14 12 c-8
6 -14 22 -14 34 0 36 -40 76 -107 107 -35 15 -63 32 -63 37 0 23 103 28 176 7
27 -7 58 -14 69 -14 11 0 76 -6 145 -12 69 -7 165 -10 213 -7 l88 6 45 17 c60
23 58 25 -58 63 -57 18 -116 37 -133 43 -16 5 -57 14 -90 20 -33 5 -82 13
-110 18 -27 5 -104 8 -170 8 l-120 -1 -81 -17z"/>
<path d="M9590 6066 c0 -29 120 -123 180 -141 14 -4 46 -18 71 -32 l47 -25 18
-40 c21 -47 60 -82 110 -98 l37 -12 74 4 75 5 67 -14 c127 -27 147 -18 85 38
-20 19 -62 59 -93 89 -32 30 -84 70 -118 87 l-60 32 -139 25 c-177 31 -215 41
-279 71 -59 28 -75 31 -75 11z m481 -222 c32 -16 34 -37 5 -42 -20 -4 -56 25
-56 45 0 17 14 17 51 -3z"/>
<path d="M8307 5911 c-108 -67 -196 -138 -311 -255 l-99 -101 -65 -98 c-71
-108 -148 -274 -187 -401 -24 -78 -35 -139 -56 -296 l-10 -75 6 -155 c20 -509
206 -869 640 -1234 106 -89 156 -126 288 -210 476 -305 644 -427 816 -597 70
-70 189 -216 236 -289 93 -147 151 -310 180 -506 l15 -101 -9 -109 c-35 -391
-249 -716 -582 -885 -64 -33 -115 -49 -234 -76 l-80 -17 -125 0 -125 1 -70 16
c-496 113 -824 503 -829 987 -3 321 223 631 523 715 l55 15 96 0 96 0 50 -17
c66 -22 89 -37 154 -103 l56 -55 23 -62 23 -62 0 -69 1 -69 -33 -62 c-53 -99
-13 -97 76 5 l57 65 10 -10 9 -9 -4 -103 -3 -104 -33 -65 c-50 -98 -81 -139
-147 -190 l-60 -47 0 -24 0 -24 40 3 c21 2 51 9 65 16 14 7 47 23 75 36 156
70 278 224 319 404 l16 67 0 97 0 98 -23 71 c-13 39 -42 103 -65 141 l-42 70
-65 59 -64 60 -83 41 c-46 23 -112 50 -148 62 l-65 20 -110 6 -110 6 -75 -10
c-263 -38 -536 -220 -681 -457 -51 -82 -106 -231 -119 -320 -5 -33 -14 -89
-19 -125 l-10 -64 10 -91 c18 -167 28 -213 77 -355 8 -25 19 -49 24 -55 10
-12 11 -65 0 -65 -21 0 -95 133 -125 225 -37 115 -46 156 -58 264 l-12 114 12
116 c16 143 41 241 92 350 52 112 48 134 -12 69 -82 -90 -166 -330 -176 -504
l-6 -112 12 -129 13 -128 25 -80 c37 -119 68 -187 129 -286 l55 -89 82 -86
c45 -48 118 -116 161 -151 l79 -64 111 -54 c233 -112 452 -164 697 -165 103 0
303 21 363 39 332 97 506 191 682 366 l100 100 66 95 c160 233 229 440 247
742 l10 156 -14 129 c-8 70 -18 142 -24 158 -81 256 -105 310 -196 445 -137
202 -304 372 -525 534 -58 42 -121 89 -140 104 -31 25 -215 148 -355 237 -82
52 -226 145 -285 184 -232 152 -397 296 -531 462 l-76 94 -56 115 c-87 178
-109 252 -128 430 l-11 105 5 105 c18 352 173 663 489 983 65 66 118 124 118
128 0 19 -39 5 -113 -40z"/>
<path d="M10820 5546 l0 -23 58 -41 c31 -22 66 -54 77 -71 50 -78 69 -5 22 86
l-16 30 -45 22 c-25 11 -57 21 -71 21 l-25 0 0 -24z"/>
<path d="M9431 5177 l-11 -13 88 -50 c113 -63 159 -84 186 -84 l21 1 -50 45
c-86 78 -209 130 -234 101z"/>
<path d="M16725 4467 c-12 -7 -46 -31 -78 -54 -31 -24 -58 -43 -61 -43 -7 0
-93 -58 -156 -105 -30 -23 -64 -45 -75 -49 l-20 -8 37 -31 c46 -40 57 -68 51
-134 -7 -73 -34 -67 -48 10 -4 20 -23 57 -42 82 l-34 45 -24 6 -24 6 -48 -17
c-26 -10 -56 -27 -66 -38 l-17 -20 6 -21 c3 -12 18 -48 34 -81 46 -100 60
-152 75 -294 l14 -136 10 -440 10 -440 -14 -505 c-8 -278 -19 -546 -25 -597
-5 -50 -10 -111 -10 -135 l0 -44 16 -22 15 -22 22 0 c13 0 54 20 92 45 95 60
179 101 245 119 30 8 75 21 100 28 l45 14 -2 30 c-1 16 -6 52 -11 79 -18 87
-32 376 -38 810 l-6 420 13 17 c8 9 45 40 84 67 l70 51 35 0 c67 0 189 -83
275 -188 52 -63 125 -191 125 -221 0 -7 6 -27 14 -44 20 -48 43 -140 60 -252
l16 -100 0 -142 0 -141 -19 -129 c-41 -267 -139 -518 -285 -730 l-57 -82 -44
-32 c-46 -33 -55 -50 -45 -89 l6 -25 37 -3 36 -3 33 23 c47 33 99 80 288 258
100 95 253 301 307 414 13 28 28 58 32 66 81 150 161 506 161 716 0 209 -62
491 -145 660 l-45 90 -62 75 c-83 99 -81 97 -174 167 -117 87 -170 116 -244
132 l-64 14 -51 -59 c-27 -32 -106 -117 -175 -187 l-125 -128 -22 0 -23 0 -6
26 c-4 14 -2 58 4 97 6 40 14 225 17 412 l5 340 16 125 c16 132 24 179 45 272
l13 58 -9 9 c-18 16 -50 20 -70 8z"/>
<path d="M2980 4442 c-14 -9 -27 -19 -30 -22 -12 -12 -93 -45 -187 -75 l-102
-33 -119 -17 -118 -17 -235 5 c-129 2 -306 9 -394 15 -707 50 -732 50 -1059
15 l-59 -6 6 29 c4 16 9 44 13 62 l7 34 -24 -14 c-41 -22 -61 -42 -86 -82 -14
-22 -80 -98 -148 -170 -67 -72 -136 -147 -154 -166 -86 -92 -211 -270 -211
-299 l0 -21 27 -6 26 -7 11 14 c65 82 179 145 344 189 l72 19 153 6 c83 3 298
2 477 -2 l325 -8 3 -22 3 -21 -33 -24 c-125 -92 -310 -234 -347 -266 l-44 -39
6 -17 c4 -10 16 -20 27 -23 26 -7 28 -18 34 -193 3 -80 10 -208 15 -285 11
-143 15 -229 27 -536 l7 -176 -12 -99 c-30 -240 -89 -356 -245 -478 -45 -35
-113 -98 -153 -141 -40 -42 -90 -90 -112 -106 l-41 -29 -6 -25 -6 -25 13 -16
13 -15 25 6 c14 4 44 15 66 25 45 20 140 42 259 61 l78 12 237 -12 c280 -14
383 -26 424 -46 45 -23 52 -20 93 43 55 84 142 182 286 322 134 131 137 134
114 166 l-15 19 -24 -15 c-14 -8 -45 -28 -70 -43 -25 -15 -70 -37 -101 -47
l-56 -20 -76 0 c-43 0 -116 7 -163 16 l-86 16 -203 -4 -204 -5 -5 14 -5 14 60
62 c219 223 296 407 309 732 l5 150 -15 190 c-9 105 -19 260 -22 345 l-6 155
10 85 c16 135 32 223 47 251 l13 27 36 6 37 7 14 -12 14 -11 0 -227 c0 -124 5
-289 11 -366 6 -77 11 -273 12 -435 l2 -295 -22 -116 c-20 -103 -42 -194 -73
-299 -5 -19 -10 -43 -10 -52 l0 -18 15 0 c8 0 32 22 53 49 62 78 99 183 169
471 l18 75 -1 235 c-1 129 -7 273 -13 320 -6 47 -14 209 -17 360 l-5 275 9 14
10 14 148 -2 149 -2 105 16 c58 9 123 21 145 26 22 6 52 13 68 16 l27 5 0 -11
c0 -6 -13 -34 -28 -63 -15 -29 -35 -72 -44 -94 l-16 -42 8 -12 7 -12 22 11
c11 7 21 16 21 21 0 16 226 332 250 350 4 3 40 43 80 90 40 47 76 87 80 90 25
19 130 156 130 171 0 34 -35 45 -70 21z"/>
<path d="M4946 4405 c-15 -8 -58 -37 -95 -63 -57 -42 -95 -66 -179 -117 -84
-50 -165 -94 -202 -110 -25 -11 -76 -35 -115 -55 l-70 -35 -3 -22 -3 -23 20 0
c96 0 138 -62 175 -259 l16 -83 -1 -782 c0 -429 -4 -844 -8 -921 l-7 -141 -24
-42 -23 -42 18 -20 c10 -11 23 -20 30 -20 7 0 36 -26 65 -57 29 -32 78 -84
109 -116 l56 -59 69 -34 c39 -19 79 -34 91 -34 l20 0 70 68 c39 37 86 79 105
93 19 14 90 66 158 114 l122 89 0 18 c0 9 -11 25 -24 33 l-24 16 -60 -15 -59
-16 -34 12 c-79 26 -149 105 -184 208 l-19 55 2 540 c2 557 26 1474 42 1580 4
33 15 98 24 145 l15 84 -11 13 c-14 17 -26 16 -62 -2z"/>
<path d="M15351 4013 c-13 -15 -52 -71 -87 -123 -93 -139 -155 -223 -189 -258
-16 -17 -61 -67 -100 -112 -62 -72 -240 -235 -384 -352 -56 -45 -69 -74 -51
-108 l12 -22 51 7 c29 3 72 13 97 20 25 8 86 16 135 20 l90 6 13 -9 14 -9 -6
-464 c-3 -255 -9 -531 -12 -614 -3 -82 -3 -186 1 -230 l6 -81 79 -52 c43 -29
81 -52 84 -52 4 0 23 -10 44 -23 20 -13 69 -41 107 -62 39 -20 77 -44 86 -51
8 -8 22 -14 30 -14 8 0 23 -6 34 -13 11 -8 38 -21 60 -29 l41 -16 21 11 c11 7
43 39 71 72 28 33 101 107 163 165 169 158 214 203 226 224 l11 19 -10 29 c-6
16 -18 33 -28 38 l-18 10 -48 -39 c-27 -21 -67 -48 -89 -60 l-40 -21 -41 0
c-145 0 -279 112 -321 269 l-15 56 1 470 0 469 18 7 c10 4 88 3 173 -1 l154
-8 18 9 c10 5 23 19 29 32 22 41 141 201 197 264 l54 63 -6 16 -6 16 -58 -6
c-31 -4 -77 -13 -102 -21 l-45 -13 -206 -7 -205 -6 -13 15 c-7 8 -10 23 -7 33
3 10 12 110 21 222 8 112 20 220 26 240 6 20 9 50 7 66 l-3 30 -30 3 -30 2
-24 -27z"/>
<path d="M6255 3450 c-76 -38 -142 -74 -149 -79 -6 -5 -49 -28 -95 -51 -46
-23 -113 -60 -150 -82 -36 -23 -104 -61 -151 -86 -122 -64 -133 -73 -168 -145
-126 -260 -129 -833 -4 -1064 9 -17 28 -53 42 -79 47 -89 237 -271 335 -321
97 -50 153 -76 190 -89 54 -19 224 -51 310 -58 l70 -6 171 167 c95 93 211 204
259 248 l88 80 -6 25 c-4 14 -19 32 -35 41 l-29 16 -31 -16 c-17 -9 -55 -32
-84 -53 -126 -85 -254 -90 -473 -15 l-90 30 -91 69 -92 68 -56 73 -56 73 0 27
0 27 43 26 c126 79 458 294 467 304 23 24 353 242 424 280 39 20 74 44 79 52
l10 15 -19 25 c-10 14 -36 38 -58 54 -37 28 -78 72 -276 300 -52 60 -118 132
-146 161 l-51 53 -21 0 c-11 0 -82 -31 -157 -70z m-133 -292 c60 -58 195 -219
255 -309 17 -25 38 -51 47 -58 9 -8 16 -24 16 -36 l0 -22 -147 -99 c-145 -96
-186 -126 -293 -212 l-53 -43 -20 3 -21 3 -9 35 -9 35 6 140 c8 190 54 443 94
522 47 91 72 99 134 41z"/>
<path d="M12225 3414 c-60 -47 -130 -96 -155 -110 -25 -13 -67 -38 -95 -54
-27 -16 -74 -42 -103 -57 l-53 -27 3 -20 3 -20 30 -7 c17 -4 51 -10 77 -14
l48 -6 30 -25 c16 -14 39 -46 50 -71 l20 -46 0 -85 0 -85 -15 -51 c-8 -28 -22
-78 -31 -111 -48 -179 -188 -507 -221 -519 l-17 -7 -13 17 c-7 10 -13 23 -13
30 0 7 -9 34 -21 61 -12 26 -46 120 -76 208 -29 88 -58 169 -63 180 -5 11 -23
65 -40 120 -35 112 -56 167 -76 207 -8 14 -14 34 -14 43 0 9 -6 29 -14 43 -7
15 -23 47 -34 72 -11 25 -45 97 -76 160 l-55 115 -39 42 c-22 23 -57 51 -79
63 l-40 20 -20 -7 c-11 -5 -55 -34 -99 -66 -43 -32 -128 -89 -189 -128 -172
-111 -175 -113 -175 -131 0 -53 37 -84 95 -79 72 5 170 -78 228 -193 34 -68
155 -359 167 -401 8 -31 22 -69 48 -140 8 -22 20 -56 27 -75 7 -19 27 -69 43
-110 17 -41 40 -102 51 -135 11 -33 30 -85 41 -115 12 -30 25 -66 30 -80 5
-14 18 -50 30 -80 12 -30 28 -74 36 -97 l15 -41 -16 -31 c-8 -17 -28 -45 -43
-63 -148 -173 -257 -359 -303 -518 l-19 -65 0 -109 0 -109 21 -57 c11 -32 35
-75 52 -95 l31 -38 60 -28 c81 -39 69 -43 219 76 73 58 191 145 262 193 l130
88 0 25 0 24 -115 5 -115 5 -22 13 c-29 16 -60 56 -83 110 l-20 45 0 71 0 71
33 96 c44 126 143 292 298 499 31 41 68 93 82 115 26 39 118 170 134 190 18
22 109 162 126 195 11 19 25 42 32 50 19 22 104 204 145 310 12 30 28 70 36
88 8 18 14 40 14 50 0 9 6 34 14 57 8 22 21 72 30 111 l16 72 0 108 c0 120 -8
159 -51 251 -54 116 -54 116 -194 7z"/>
<path d="M13517 3305 l-188 -184 -15 6 c-20 7 -34 45 -34 87 l0 33 -32 64
c-17 35 -55 87 -84 117 l-52 54 -24 -7 c-12 -5 -43 -26 -68 -47 -40 -35 -203
-146 -342 -234 l-47 -29 -1 -21 c0 -28 14 -38 73 -54 l47 -13 32 -35 c17 -20
41 -59 54 -87 l22 -52 13 -211 12 -211 -12 -408 c-7 -224 -16 -464 -21 -532
l-9 -123 11 -24 11 -24 27 0 c28 0 72 21 194 93 64 36 128 65 197 87 14 4 40
15 57 24 l32 17 0 42 c0 23 -7 64 -15 90 l-14 48 0 377 c0 207 -5 475 -11 596
l-11 218 22 24 c12 13 49 40 83 60 l61 36 37 0 36 -1 59 -29 c32 -16 76 -38
98 -48 22 -11 66 -34 98 -53 l57 -33 21 -40 21 -41 -5 -186 c-2 -102 -10 -328
-17 -501 l-12 -315 16 -64 c9 -34 16 -71 16 -81 0 -11 15 -52 34 -93 l33 -73
62 -67 c94 -100 97 -100 246 23 55 45 151 116 213 157 61 41 112 79 112 84 0
15 -44 39 -73 39 -47 0 -92 25 -133 74 l-39 47 -17 67 -18 67 0 185 c0 258 29
867 45 916 l7 21 -64 50 c-93 74 -192 138 -272 177 -137 65 -162 76 -173 76
-6 0 -36 11 -67 25 -31 14 -67 25 -79 25 l-22 0 -188 -185z"/>
<path d="M2885 3350 c-66 -64 -175 -170 -242 -235 -110 -107 -152 -162 -136
-179 17 -17 61 -1 138 49 46 30 87 55 90 55 3 0 27 10 53 22 l47 23 126 0 126
0 24 -12 c13 -7 49 -22 79 -34 124 -51 208 -126 229 -207 l12 -42 -10 -17 c-5
-10 -69 -48 -143 -86 -73 -37 -140 -72 -148 -77 -8 -5 -75 -46 -148 -92 -73
-46 -152 -94 -175 -108 -218 -128 -276 -195 -313 -355 l-16 -70 6 -75 c12
-150 39 -212 124 -295 97 -94 323 -245 367 -245 l23 0 64 58 c35 31 95 84 134
117 38 33 102 92 141 132 40 40 78 73 85 73 l13 0 28 -75 28 -75 82 -80 c84
-84 173 -150 201 -150 9 0 44 27 78 61 76 74 228 188 297 225 92 48 90 64 -14
89 -156 39 -199 84 -259 269 l-16 50 0 315 1 316 18 195 19 195 -13 20 c-8 11
-53 61 -102 110 l-88 90 -80 47 c-44 26 -111 57 -150 68 -38 12 -86 27 -105
33 l-35 12 -160 1 -160 1 -120 -117z m526 -712 c3 -34 -4 -236 -10 -310 l-8
-83 10 -187 10 -188 -18 -20 c-10 -12 -29 -26 -41 -33 -12 -7 -40 -22 -64 -35
l-42 -24 -29 12 c-122 51 -246 210 -270 346 l-12 68 13 51 13 50 38 50 c43 56
113 118 207 185 34 25 88 64 120 87 59 44 81 52 83 31z"/>
</g>
</svg>
